 <svg version="1.0" xmlns="http://www.w3.org/2000/svg" width="700.000000pt" height="438.000000pt" viewBox="0 0 700.000000 438.000000" preserveAspectRatio="xMidYMid meet">
<path className='path' transform="translate(0.000000,438.000000) scale(0.100000,-0.100000)" stroke="#000000" d="M3087 4224 c-4 -4 -7 -33 -7 -65 0 -48 -3 -57 -20 -62 -18 -5 -20
-14 -20 -86 0 -74 -2 -81 -20 -81 -19 0 -20 -7 -20 -170 0 -144 -2 -170 -15
-170 -8 0 -15 7 -15 15 0 10 -11 15 -35 15 -32 0 -35 -3 -35 -28 0 -16 -9 -37
-20 -47 -11 -10 -20 -26 -20 -37 0 -13 -7 -18 -25 -18 -18 0 -25 -5 -25 -20 0
-15 -7 -20 -25 -20 -22 0 -25 4 -25 40 l0 40 -70 0 c-68 0 -70 1 -70 25 0 20
-5 25 -25 25 -21 0 -25 -5 -25 -30 0 -29 -2 -30 -45 -30 l-45 0 0 -58 c0 -46
-4 -63 -20 -77 -18 -16 -20 -31 -20 -152 0 -111 -2 -133 -15 -133 -12 0 -15
28 -17 173 -3 170 -3 172 -25 175 -19 3 -23 10 -23 43 0 28 -4 39 -15 39 -10
0 -15 11 -15 35 l0 35 -90 0 -90 0 0 -34 c0 -28 -4 -35 -22 -38 -20 -3 -21 -8
-19 -85 2 -81 2 -83 -21 -83 -13 0 -30 -6 -37 -12 -8 -9 -52 -13 -146 -13
-133 0 -135 0 -135 23 0 13 -6 22 -15 22 -8 0 -15 7 -15 15 0 11 -11 15 -39
15 -30 0 -40 -4 -44 -20 -8 -31 -27 -24 -27 10 0 25 -4 30 -25 30 l-25 0 0
120 0 121 -97 -3 -98 -3 -3 -120 c-2 -98 -5 -122 -19 -132 -24 -18 -73 -17
-73 2 0 8 -9 15 -20 15 -11 0 -20 -5 -20 -12 0 -6 -8 -4 -20 7 -19 17 -19 16
-22 -66 -2 -55 -7 -84 -15 -87 -7 -2 -13 3 -13 12 0 11 -9 16 -29 16 -28 0
-30 -2 -33 -47 l-3 -48 -87 -3 -88 -3 0 101 c0 60 -4 100 -10 100 -5 0 -10 18
-10 40 0 22 -4 40 -10 40 -5 0 -10 9 -10 20 0 15 -7 20 -29 20 -17 0 -33 5
-36 10 -3 6 -24 10 -46 10 l-39 0 0 -50 c0 -27 -4 -50 -10 -50 -5 0 -10 9 -10
20 0 16 -7 20 -35 20 -28 0 -35 -4 -35 -20 0 -11 -4 -20 -10 -20 -5 0 -10 11
-10 25 0 23 -4 25 -44 25 -56 0 -56 0 -56 -207 0 -137 -2 -163 -15 -163 -12 0
-15 22 -17 118 l-3 117 -42 3 -43 3 0 60 0 59 -49 0 c-33 0 -51 5 -54 14 -6
16 -35 15 -45 -1 -4 -6 -17 -13 -30 -14 -12 -2 -23 -8 -22 -13 0 -9 14 -11
130 -14 l50 -2 0 -60 0 -60 45 0 45 0 0 -115 0 -115 40 0 40 0 0 163 c0 89 3
172 6 185 9 32 38 24 42 -11 3 -23 8 -27 33 -27 22 0 29 5 29 20 0 11 7 20 15
20 8 0 15 -7 15 -16 0 -11 8 -14 33 -12 31 3 32 5 35 51 4 56 29 67 34 15 4
-42 38 -47 49 -8 l6 25 12 -28 c6 -16 11 -44 11 -63 0 -22 6 -37 15 -40 12 -5
15 -26 15 -100 l0 -94 110 0 110 0 0 53 c1 45 2 50 14 35 7 -10 18 -18 23 -18
5 0 14 -17 19 -37 5 -20 15 -38 22 -41 9 -3 12 23 12 108 0 102 1 111 16 99
20 -16 88 -12 126 7 l28 15 0 119 0 120 80 0 80 0 0 -145 0 -145 60 0 c47 0
60 3 60 15 0 8 7 15 16 15 20 0 44 -24 44 -45 0 -9 9 -19 20 -22 17 -5 20 -14
20 -60 0 -51 2 -54 23 -51 19 3 22 10 25 57 l3 54 106 -7 c85 -5 109 -4 122 8
9 8 27 16 41 18 24 3 25 6 28 91 3 79 5 87 22 87 16 0 20 7 20 30 l0 30 70 0
70 0 0 -29 c0 -16 6 -31 15 -35 10 -3 15 -19 15 -46 0 -33 3 -40 20 -40 19 0
20 -8 22 -172 l3 -173 35 0 35 0 3 140 c2 121 5 142 22 160 12 13 20 38 22 70
l3 50 60 8 c33 4 85 6 115 5 l55 -3 3 -37 c3 -32 7 -38 26 -38 13 0 29 -7 36
-15 19 -23 30 -18 30 14 0 25 4 30 28 33 22 2 28 8 30 35 2 17 10 37 18 43 8
7 14 21 14 31 0 10 5 21 10 24 6 3 10 0 10 -8 0 -8 9 -17 20 -20 17 -4 20 -14
20 -56 0 -44 3 -51 20 -51 19 0 20 8 22 223 3 222 3 222 26 225 21 3 22 8 22
83 0 64 3 79 15 79 12 0 15 14 15 65 0 58 2 65 20 65 16 0 19 -8 22 -62 3 -57
5 -63 26 -66 21 -3 22 -8 22 -83 0 -72 2 -79 20 -79 20 0 20 -7 20 -275 l0
-275 30 0 c29 0 30 2 30 45 0 45 0 45 35 45 35 0 35 0 35 -45 0 -38 3 -45 20
-45 16 0 20 -7 20 -30 l0 -30 73 0 c65 0 73 2 82 23 13 28 75 36 95 12 12 -14
16 -13 42 11 18 18 28 38 28 56 0 21 5 28 20 28 18 0 20 -8 22 -117 l3 -118
30 0 c27 0 30 3 33 38 3 35 5 37 38 37 l34 0 0 64 c0 63 0 65 30 71 l30 7 0
104 0 104 40 0 40 0 0 -105 c0 -63 4 -105 10 -105 6 0 10 -27 10 -60 l0 -60
40 0 c32 0 40 4 40 18 0 16 8 18 90 14 l90 -4 0 61 0 61 60 0 c58 0 60 1 74
33 l14 32 11 -28 c6 -16 11 -73 11 -128 l0 -99 30 0 30 0 0 371 c0 362 0 371
20 376 18 5 20 14 20 74 l0 69 100 0 100 0 0 -70 c0 -63 2 -70 20 -70 20 0 20
-7 20 -325 l0 -325 30 0 c20 0 30 -5 30 -15 0 -12 16 -15 83 -15 76 0 86 2
107 25 19 21 33 25 77 25 l53 0 0 -36 0 -35 43 3 c39 3 42 5 42 33 l1 30 72 3
72 3 0 -96 0 -95 30 0 30 0 0 80 c0 79 0 80 25 80 18 0 25 5 25 20 0 11 5 20
10 20 6 0 10 27 10 60 l0 60 35 0 35 0 0 -59 c0 -43 4 -60 15 -65 8 -3 14 -11
13 -18 -5 -20 38 -21 61 -1 12 9 21 25 21 33 0 13 7 15 31 12 17 -2 41 1 54 8
17 9 39 10 82 4 l58 -9 3 -80 c3 -82 16 -109 40 -78 10 15 12 12 12 -19 0 -19
7 -41 15 -48 8 -7 15 -23 15 -36 0 -20 5 -24 30 -24 23 0 30 5 30 19 0 14 8
21 28 23 22 2 26 7 24 26 -2 12 2 22 8 22 6 0 8 -5 5 -11 -4 -6 2 -13 14 -16
12 -3 21 -9 21 -14 0 -5 5 -9 10 -9 6 0 22 -12 35 -27 23 -27 24 -27 44 -9 19
17 21 32 25 205 5 227 11 271 37 271 16 0 19 7 19 41 0 39 1 40 33 37 l32 -3
3 -90 c2 -49 7 -94 12 -99 6 -6 10 -90 10 -195 0 -182 0 -184 19 -166 11 9 21
33 23 54 2 30 7 37 28 39 14 2 29 8 35 13 14 14 35 11 35 -6 0 -10 10 -15 29
-15 17 0 33 -4 36 -10 3 -5 15 -10 26 -10 19 0 20 -6 18 -92 l-2 -93 32 -3 31
-3 0 75 c0 44 -4 76 -10 76 -6 0 -10 -26 -10 -59 0 -33 -4 -63 -10 -66 -6 -4
-10 28 -10 89 0 95 0 96 -24 96 -14 0 -28 5 -31 10 -3 6 -14 10 -24 10 -10 0
-21 9 -24 20 -6 24 -48 27 -67 5 -7 -8 -27 -15 -46 -15 l-33 0 -5 128 c-3 70
-8 173 -11 230 l-6 102 -39 0 -38 0 -7 80 c-11 123 -29 99 -33 -43 -2 -109 -4
-117 -22 -117 -17 0 -20 -7 -20 -44 0 -25 -4 -48 -10 -51 -6 -4 -10 -80 -10
-196 0 -119 -4 -189 -10 -189 -5 0 -10 9 -10 21 0 12 -8 23 -20 26 -11 3 -20
9 -20 14 0 5 -6 9 -14 9 -8 0 -17 7 -20 16 -9 24 -50 14 -54 -13 -3 -17 -10
-23 -29 -23 -17 0 -27 -7 -30 -20 -5 -19 -6 -19 -19 6 -8 14 -14 44 -14 65 0
37 -2 39 -30 39 l-30 0 0 75 0 75 -39 0 c-22 0 -43 5 -46 10 -3 6 -21 10 -40
10 -19 0 -37 -4 -40 -10 -3 -5 -29 -10 -56 -10 -38 0 -51 -4 -56 -17 -10 -28
-24 -32 -44 -15 -15 13 -19 30 -19 74 0 32 -4 58 -10 58 -6 0 -10 27 -10 60 0
53 -2 60 -20 60 -16 0 -19 -8 -22 -62 -3 -59 -4 -63 -25 -60 -22 3 -23 0 -23
-58 0 -45 -4 -62 -15 -66 -8 -4 -15 -15 -15 -25 0 -12 -7 -19 -20 -19 -18 0
-20 -7 -20 -74 0 -41 -4 -78 -10 -81 -6 -4 -10 28 -10 89 l0 96 -95 0 -95 0 0
-30 c0 -23 -5 -30 -19 -30 -15 0 -21 8 -23 33 l-3 32 -65 3 c-62 3 -67 1 -95
-28 -26 -27 -35 -30 -87 -30 -43 0 -60 4 -64 15 -4 8 -17 15 -30 15 l-24 0 0
325 0 325 -25 0 c-24 0 -25 2 -25 75 l0 76 -117 -3 -118 -3 -3 -72 c-3 -65 -5
-73 -22 -73 -19 0 -20 -10 -22 -377 -1 -208 -4 -337 -7 -288 -6 82 -36 205
-51 205 -3 0 -16 -22 -27 -50 l-21 -50 -66 0 -66 0 0 -61 0 -61 -90 7 c-87 7
-90 6 -90 -14 0 -12 -4 -21 -10 -21 -6 0 -10 26 -10 59 0 43 -4 60 -15 65 -12
4 -15 26 -15 111 l0 105 -60 0 -59 0 -3 -107 -3 -108 -32 -14 c-32 -14 -33
-17 -33 -73 0 -58 0 -58 -30 -58 -28 0 -30 -3 -30 -35 0 -19 -4 -35 -10 -35
-6 0 -10 45 -10 115 l0 115 -45 0 c-43 0 -45 -1 -45 -28 0 -36 -35 -71 -52
-54 -21 21 -77 14 -104 -13 -20 -20 -35 -25 -74 -25 -49 0 -50 1 -50 30 0 23
-4 30 -20 30 -17 0 -20 7 -20 45 l0 45 -55 0 -55 0 0 -45 c0 -25 -3 -45 -7
-45 -5 0 -8 120 -8 267 l0 268 -22 3 c-22 3 -23 8 -23 88 0 77 -2 84 -20 84
-16 0 -19 8 -22 63 l-3 62 -35 3 c-20 2 -39 0 -43 -4z"></path>

</svg>